<svg viewBox="0 0 100 100" xmlns="http://www.w3.org/2000/svg">
  <path fill="#FF4B4B" d="M50 0c-3.3 0-6 2.7-6 6v8.1c-2.9.8-5.6 2-8.1 3.6l-5.7-5.7c-2.4-2.4-6.2-2.4-8.5 0L13 20.7c-2.4 2.4-2.4 6.2 0 8.5l5.7 5.7c-1.6 2.5-2.8 5.2-3.6 8.1H6c-3.3 0-6 2.7-6 6v12c0 3.3 2.7 6 6 6h8.1c.8 2.9 2 5.6 3.6 8.1l-5.7 5.7c-2.4 2.4-2.4 6.2 0 8.5l8.5 8.5c2.4 2.4 6.2 2.4 8.5 0l5.7-5.7c2.5 1.6 5.2 2.8 8.1 3.6V94c0 3.3 2.7 6 6 6h12c3.3 0 6-2.7 6-6v-8.1c2.9-.8 5.6-2 8.1-3.6l5.7 5.7c2.4 2.4 6.2 2.4 8.5 0l8.5-8.5c2.4-2.4 2.4-6.2 0-8.5l-5.7-5.7c1.6-2.5 2.8-5.2 3.6-8.1H94c3.3 0 6-2.7 6-6V38c0-3.3-2.7-6-6-6h-8.1c-.8-2.9-2-5.6-3.6-8.1l5.7-5.7c2.4-2.4 2.4-6.2 0-8.5l-8.5-8.5c-2.4-2.4-6.2-2.4-8.5 0l-5.7 5.7c-2.5-1.6-5.2-2.8-8.1-3.6V6c0-3.3-2.7-6-6-6H50zm6 40c4.4 0 8 3.6 8 8s-3.6 8-8 8-8-3.6-8-8 3.6-8 8-8z"/>
</svg> 